<?xml version="1.0" encoding="UTF-8" standalone="no"?>
<!DOCTYPE svg PUBLIC "-//W3C//DTD SVG 1.1//EN" "http://www.w3.org/Graphics/SVG/1.1/DTD/svg11.dtd">
<svg width="100%" height="100%" viewBox="0 0 221 46" version="1.1" xmlns="http://www.w3.org/2000/svg" xmlns:xlink="http://www.w3.org/1999/xlink" xml:space="preserve" xmlns:serif="http://www.serif.com/" style="fill-rule:evenodd;clip-rule:evenodd;stroke-linejoin:round;stroke-miterlimit:2;">
    <g id="Artboard1" transform="matrix(0.922373,0,0,0.976885,19.5633,1.97143)">
        <rect x="-21.21" y="-2.018" width="238.634" height="46.725" style="fill:none;"/>
        <g transform="matrix(3.80011,0,0,3.58805,-285.668,-644.953)">
            <path d="M77.816,186.395L80.142,187.098C79.986,187.751 79.74,188.296 79.404,188.733C79.068,189.171 78.651,189.501 78.153,189.723C77.655,189.946 77.021,190.057 76.251,190.057C75.318,190.057 74.555,189.922 73.963,189.65C73.371,189.379 72.861,188.901 72.431,188.217C72.001,187.534 71.786,186.659 71.786,185.592C71.786,184.171 72.164,183.078 72.92,182.314C73.676,181.55 74.745,181.169 76.128,181.169C77.21,181.169 78.061,181.387 78.68,181.825C79.299,182.262 79.759,182.934 80.06,183.841L77.716,184.362C77.634,184.1 77.548,183.909 77.458,183.788C77.31,183.585 77.128,183.428 76.913,183.319C76.699,183.21 76.458,183.155 76.193,183.155C75.591,183.155 75.13,183.397 74.81,183.882C74.568,184.241 74.447,184.805 74.447,185.575C74.447,186.528 74.591,187.181 74.88,187.535C75.169,187.888 75.576,188.065 76.099,188.065C76.607,188.065 76.991,187.923 77.25,187.637C77.51,187.352 77.699,186.938 77.816,186.395Z" style="fill:rgb(223,0,255);fill-rule:nonzero;"/>
            <path d="M81.443,181.315L84.097,181.315L84.097,184.321L86.997,184.321L86.997,181.315L89.663,181.315L89.663,189.905L86.997,189.905L86.997,186.43L84.097,186.43L84.097,189.905L81.443,189.905L81.443,181.315Z" style="fill:rgb(223,0,255);fill-rule:nonzero;"/>
            <rect x="91.533" y="181.315" width="2.66" height="8.59" style="fill:rgb(223,0,255);fill-rule:nonzero;"/>
            <path d="M96.085,181.315L100.497,181.315C101.458,181.315 102.178,181.544 102.657,182.001C103.135,182.458 103.374,183.108 103.374,183.952C103.374,184.819 103.114,185.497 102.592,185.985C102.071,186.473 101.275,186.717 100.204,186.717L98.751,186.717L98.751,189.905L96.085,189.905L96.085,181.315ZM98.751,184.977L99.402,184.977C99.913,184.977 100.273,184.888 100.48,184.711C100.687,184.533 100.79,184.305 100.79,184.028C100.79,183.759 100.701,183.53 100.521,183.342C100.341,183.155 100.003,183.061 99.507,183.061L98.751,183.061L98.751,184.977Z" style="fill:rgb(223,0,255);fill-rule:nonzero;"/>
            <path d="M104.751,181.315L109.163,181.315C110.124,181.315 110.844,181.544 111.323,182.001C111.801,182.458 112.04,183.108 112.04,183.952C112.04,184.819 111.78,185.497 111.258,185.985C110.737,186.473 109.941,186.717 108.87,186.717L107.417,186.717L107.417,189.905L104.751,189.905L104.751,181.315ZM107.417,184.977L108.068,184.977C108.579,184.977 108.939,184.888 109.146,184.711C109.353,184.533 109.456,184.305 109.456,184.028C109.456,183.759 109.367,183.53 109.187,183.342C109.007,183.155 108.669,183.061 108.173,183.061L107.417,183.061L107.417,184.977Z" style="fill:rgb(223,0,255);fill-rule:nonzero;"/>
            <path d="M113.423,181.315L120.536,181.315L120.536,183.149L116.083,183.149L116.083,184.514L120.214,184.514L120.214,186.266L116.083,186.266L116.083,187.96L120.665,187.96L120.665,189.905L113.423,189.905L113.423,181.315Z" style="fill:rgb(223,0,255);fill-rule:nonzero;"/>
            <path d="M122.13,189.905L122.13,181.315L126.554,181.315C127.374,181.315 128.001,181.385 128.435,181.526C128.868,181.667 129.218,181.927 129.484,182.308C129.749,182.689 129.882,183.153 129.882,183.7C129.882,184.176 129.781,184.588 129.577,184.933C129.374,185.279 129.095,185.559 128.74,185.774C128.513,185.911 128.202,186.024 127.808,186.114C128.124,186.219 128.355,186.325 128.499,186.43C128.597,186.501 128.739,186.651 128.924,186.882C129.11,187.112 129.234,187.29 129.296,187.415L130.579,189.905L127.579,189.905L126.161,187.28C125.982,186.94 125.822,186.719 125.681,186.618C125.49,186.485 125.273,186.419 125.031,186.419L124.796,186.419L124.796,189.905L122.13,189.905ZM124.796,184.796L125.915,184.796C126.036,184.796 126.271,184.757 126.618,184.678C126.794,184.643 126.938,184.553 127.049,184.409C127.16,184.264 127.216,184.098 127.216,183.911C127.216,183.634 127.128,183.421 126.952,183.272C126.777,183.124 126.447,183.05 125.962,183.05L124.796,183.05L124.796,184.796Z" style="fill:rgb(223,0,255);fill-rule:nonzero;"/>
        </g>
    </g>
</svg>
