<?xml version="1.0" encoding="utf-8"?>
<!-- Generator: Adobe Adobe Illustrator 24.2.0, SVG Export Plug-In . SVG Version: 6.00 Build 0)  -->
<svg version="1.1" id="Layer_1" xmlns="http://www.w3.org/2000/svg" xmlns:xlink="http://www.w3.org/1999/xlink" x="0px" y="0px"
	 width="728.5px" height="728.5px" viewBox="0 0 728.5 728.5" xml:space="preserve"
	>
<style type="text/css">
	.st0{opacity:1;fill:url(#SVGID_1_);}
</style>

<g>
	<g>
		<path d="M629,411.23c-6.15,36.33-19.1,69.52-39,99.81c-42.37,64.5-101.97,103.65-177.72,117.17
			c-67.41,12.03-131.39,1.89-189.54-35.73c-61.7-39.91-103.83-94.42-120.01-167.1C78.57,316.83,121.51,207.63,211.58,145.2
			c34.74-24.08,73.09-38.74,114.99-44.33c16.51-2.2,32.96-4.84,49.7-3.49c52.91,4.25,102.22,18.97,145.47,50.75
			c56.51,41.53,92.62,96.35,106.47,165.35c3.56,17.73,5.74,35.71,6.37,53.79C635.09,381.98,631.15,396.25,629,411.23z
			 M256.14,178.29c25.76,18.89,41.1,44.77,49.5,75c10.7,38.53,9.67,78.05,8.66,117.48c-0.1,3.71-1.74,7.55-3.34,11.01
			c-3.73,8.1-11.91,10.79-19.97,6.87c-6.29-3.05-11.71-7.36-16.87-12.01c-11.04-9.95-22.29-19.69-33.02-29.97
			c-11.55-11.07-25.41-15.28-40.94-16.42c-11.91-0.88-23.95-1.65-35.21-6.49c-19.68-8.46-26.63-23.89-19.89-44.06
			c1.86-5.58,3.34-11.3,4.66-17.04c0.8-3.47,1.09-7.14-2.92-9.75c-0.73,1.21-1.31,2.02-1.75,2.9
			c-11.84,23.65-19.39,48.64-23.75,74.69c-0.98,5.86-0.82,10.93,3.88,14.99c22.15,19.11,47.22,29.01,76.96,24.76
			c6.43-0.92,13.3-4.03,19.41,1.01c15.09,12.43,30.16,24.88,45.05,37.55c4.61,3.92,4.31,6.78-0.47,10.41
			c-31.13,23.6-66.65,32.07-105.06,29.95c-9-0.5-17.94-2.2-27.21-3.38c28.75,86.59,112.34,169.87,251.72,163.39
			c60.24-2.8,110.29-30.41,153.08-71.72c26.89-25.96,45.88-56.99,58.34-93.04c-11.21,1.81-21.1,3.92-31.24,4.83
			c-39.37,3.5-74.33-7.86-106.12-30.44c-5.28-3.75-5.24-5.65-0.24-9.81c13.77-11.47,27.77-22.66,41.27-34.44
			c6.15-5.37,12.43-6.61,20.23-5.09c31.67,6.16,58.52-3.78,81.67-25.33c3.93-3.66,6.31-8.14,5.44-13.6
			c-4.14-25.87-11.74-50.67-23.44-74.16c-0.96-1.92-1.44-4.35-4.61-5.04c-3.76,3.58-6.01,7.84-4.27,13.32
			c1.78,5.61,4,11.08,5.84,16.68c1.9,5.79,3.87,11.62,2.29,17.88c-4.06,16.05-16.22,23.07-30.7,27.39
			c-9.64,2.87-19.73,2.47-29.59,3.75c-17.03,2.21-32.33,7.9-44.58,20.46c-5.55,5.69-11.2,11.28-16.92,16.78
			c-7.63,7.33-15.01,15.07-24.38,20.2c-10.48,5.73-20.53,1.42-24.15-9.99c-1.62-5.1-1.83-10.41-1.83-15.7
			c0-24.41-0.73-48.8,2.13-73.17c2.53-21.59,7.07-42.48,16.93-61.96c14.76-29.17,35.26-52.22,67.47-62.64
			c0.95-0.31,1.84-0.9,1.66-2.97c-43.44-26.48-90.39-42.59-142.21-41c-47.28,1.45-90.12,17.3-130.83,42.84
			C237.51,167.47,247.03,171.56,256.14,178.29z M535.5,205.93c-19.56,3.45-35.3,13.02-46.94,29.21
			c-19.53,27.18-22.36,58.23-20.83,90.26c0.07,1.55,0.1,3.78,2.5,4.43c0.49-0.35,1.07-0.62,1.44-1.06c1.03-1.26,1.99-2.57,2.93-3.89
			c11.72-16.5,17.13-35.29,20.07-55.02c2.36-15.78,10.37-24.35,26.02-27.45c6.54-1.3,13.35-1.22,20-2.05c8-1,16.22-0.73,23.65-4.94
			c4.26-2.42,5.76-4.81,2.39-9c-2.42-3.01-5.13-5.93-6.87-9.33C554.86,207.33,546.97,204.14,535.5,205.93z M217.47,246.02
			c9.96,4.84,11.76,14.6,13.8,23.87c3.24,14.7,6,29.51,13.36,42.89c3.74,6.8,7.14,13.88,13.79,20c0.7-25.48,1.46-49.81-7.47-73.22
			c-10.45-27.4-28.14-46.86-57.86-53.33c-9.92-2.16-16.52,0.14-21.9,7.88c-3.37,4.84-6.54,9.83-10.06,14.56
			c-2.56,3.44-1.54,5.54,1.88,7.19c5.36,2.59,11.03,3.89,16.94,4.7C192.17,242.23,204.87,240.57,217.47,246.02z" fill="#6f592c"/>
		<path d="M358.14,425.06c14.41,0.56,28.18,1.36,41.68,4.77c5.54,1.4,7.38,4.27,5.73,9.78c-1.86,6.22-3.65,12.49-5.01,18.83
			c-1.24,5.83-4.25,9.37-9.73,12.12c-14.91,7.46-19.21,24.8-9.81,37.56c6.34,8.6,14.99,12.76,25.54,10.73
			c10.36-2,17.04-9.18,19.25-19.15c2.17-9.78,5.37-12.65,17.1-10.6c1,0.17,1.98,0.45,2.99,0.57c10.99,1.27,12.18,2.95,6.95,12.87
			c-11.69,22.16-29.42,35.58-55.32,35.59c-12.48,0.01-22.64-5.78-30.97-14.89c-1.49-1.63-2.92-3.33-4.43-5.07
			c-0.74,0.4-1.42,0.54-1.73,0.95c-17.71,23.81-43.64,23.88-67.29,9.49c-11.18-6.8-18.72-16.76-23.69-28.72
			c-2.67-6.43-1.15-9.04,5.67-10.08c3.4-0.52,6.83-1.12,10.26-1.21c7.73-0.21,9.41,1.27,11.1,8.97
			c3.11,14.19,12.92,22.12,26.72,21.6c10-0.38,20.78-9.44,23.28-19.57c2.66-10.8-1.56-22.63-11.35-27.23
			c-9.26-4.35-13.09-11.62-15.14-20.69c-0.89-3.96-1.99-7.9-2.44-11.91c-0.92-8.19,1.55-11.19,9.68-12.28
			C337.25,426.13,347.37,425.31,358.14,425.06z" fill="#6f592c"/>
	</g>
</g>
</svg>
