<?xml version="1.0" encoding="UTF-8" standalone="no"?>
<!DOCTYPE svg PUBLIC "-//W3C//DTD SVG 1.1//EN" "http://www.w3.org/Graphics/SVG/1.1/DTD/svg11.dtd">
<svg width="100%" height="100%" viewBox="0 0 600 600" version="1.1" xmlns="http://www.w3.org/2000/svg" xmlns:xlink="http://www.w3.org/1999/xlink" xml:space="preserve" xmlns:serif="http://www.serif.com/" style="fill-rule:evenodd;clip-rule:evenodd;stroke-linejoin:round;stroke-miterlimit:2;">
    <g transform="matrix(1,0,0,1,-15.5,0)">
        <path d="M480.956,482.015C495.035,477.393 508.185,471.657 519.801,462.986C542.18,446.28 558.403,425.401 562.967,397.043C566.196,376.979 563.635,357.784 554.32,339.461C552.346,335.577 549.839,333.714 546.112,333.066C513.569,327.406 482.705,331.493 454.274,349.232C449.478,352.225 444.776,355.371 440.031,358.447C434.449,362.064 430.123,361.364 425.588,356.109C422.197,352.178 422.036,345.856 426.463,342.234C434.87,335.357 443.737,329.009 452.68,322.828C465.982,313.634 481.486,309.732 496.896,306.299C504.833,304.532 513.344,305.331 521.597,305.01C523.683,304.929 525.775,304.998 528.686,304.998C523.192,296.035 517.935,287.922 513.149,279.539C506.489,267.871 500.21,255.993 497.982,242.481C497.35,238.649 495.751,236.631 491.138,236.85C482.589,237.256 474.389,238.664 465.983,241.863C471.904,249.137 474.031,256.9 474.179,265.811C474.432,281.074 462.507,294.629 449.674,297.951C441.912,299.96 434.138,299.868 426.74,296.246C424.185,294.995 422.148,295.391 419.757,296.97C399.167,310.567 384.768,329.033 375.966,351.986C375.562,353.038 375.068,354.058 374.562,355.067C374.221,355.749 373.786,356.384 372.353,358.776C369.014,354.742 366.114,351.232 363.202,347.732C362.884,347.35 362.548,346.823 362.127,346.71C353.489,344.391 354.709,338.044 356.094,331.766C360.979,309.626 365.989,287.514 370.866,265.372C376.614,239.28 382.524,213.219 387.897,187.048C392.921,162.577 397.324,137.979 402.052,113.447C402.285,112.236 403.011,111.121 403.731,109.442C409.761,112.193 415.585,114.85 421.752,117.663C423.562,103.047 428.404,89.643 437.987,78.17C448.8,65.223 461.86,56.668 478.944,53.853C507.567,49.138 533.776,71.013 543.176,94.496C548.535,107.881 550.204,121.581 548.813,135.481C546.786,155.74 540.008,174.511 525.098,189.055C520.353,193.683 519.425,198.398 520.044,204.065C521.477,217.188 523.288,230.21 527.595,242.833C534.171,262.108 545.067,278.85 556.695,295.302C564.836,306.822 573.15,318.345 579.927,330.669C587.435,344.323 591.272,359.249 592.19,375.136C593.936,405.345 585.158,432.149 567.261,455.904C545.581,484.682 516.902,503.077 481.296,509.901C472.815,511.526 464.097,512.881 455.518,512.727C448.473,512.6 444.281,516.694 439.525,520.099C414.074,538.318 386.21,550.798 355.483,557.135C338.369,560.664 321.111,561.875 303.832,560.832C280.248,559.408 257.508,553.737 235.733,544.341C217.376,536.42 200.507,526.051 184.532,514.119C183.589,513.416 182.144,513.018 180.956,513.065C157.083,513.995 135.175,507.053 114.578,495.801C93.39,484.225 76.509,467.872 63.989,447.146C56.772,435.198 51.223,422.54 48.586,408.776C45.463,392.481 45.119,376.256 48.411,359.787C53.045,336.608 64.848,317.498 79.074,299.177C94.9,278.796 108.216,256.73 114.103,231.243C116.55,220.645 117.266,209.551 117.679,198.642C117.792,195.656 114.313,192.201 111.878,189.508C99.206,175.487 91.717,159.153 88.947,140.501C86.205,122.042 88.17,104.278 97.092,87.755C106.296,70.708 119.884,58.519 139.182,54.285C154.796,50.86 169.214,54.968 181.841,64.445C198.13,76.671 207.203,93.295 210.035,113.408C210.233,114.82 210.87,116.17 211.326,117.624C217.169,114.911 223.102,112.156 228.983,109.425C245.911,187.512 262.691,264.915 279.074,340.485C271.912,346.732 265.877,351.994 260.212,356.936C256.928,350.169 253.653,342.436 249.551,335.171C240.549,319.227 227.755,306.772 212.404,296.95C211.067,296.095 208.585,296.055 207.032,296.659C180.318,307.042 156.518,286.268 159.275,261.131C160.032,254.235 164.011,247.692 166.793,240.231C159.874,239.249 151.975,237.994 144.031,237.145C142.821,237.015 140.454,238.579 140.23,239.684C135.642,262.376 124.4,282.003 112.286,301.252C111.692,302.195 111.325,303.28 110.53,304.995C112.197,304.995 113.418,305.031 114.635,304.989C130.486,304.444 145.769,306.826 160.527,312.935C176.999,319.754 191.79,329.134 205.226,340.747C209.351,344.312 210.06,349.154 208.473,353.876C206.674,359.226 200.197,363.186 193.301,358.808C186.343,354.392 179.333,350.059 172.311,345.744C160.133,338.263 146.918,333.857 132.746,331.949C119.23,330.13 105.82,330.501 92.503,333.142C90.351,333.569 87.804,335.357 86.714,337.25C78.91,350.801 74.6,365.294 73.844,381.121C72.799,403.009 79.382,422.338 92.36,439.335C108.525,460.504 129.631,474.611 155.495,482.24C175.324,488.089 195.353,488.491 215.547,487.819C223.118,487.567 230.606,485.188 238.173,484.056C239.879,483.801 242.361,484.086 243.466,485.165C256.048,497.462 270.577,506.385 287.553,511.112C301.343,514.952 315.283,515.775 329.604,514.16C353.285,511.489 372.74,500.818 389.849,484.864C391.17,483.632 394.121,483.049 395.899,483.573C415.606,489.389 435.66,489.039 455.73,486.887C464.079,485.992 472.277,483.689 480.956,482.015M509.151,164.283C517.141,154.43 520.294,142.683 520.817,130.468C521.359,117.824 518.695,105.744 510.912,95.079C503.632,85.103 494.042,80.215 481.959,81.12C471.405,81.91 463.962,88.207 459.298,97.389C451.695,112.358 452.337,127.8 457.78,143.281C459.568,148.367 461.564,153.38 463.425,158.324C452.351,162.687 442.718,167.746 434.906,175.636C420.841,189.842 410.51,206.569 404.173,225.406C399.913,238.065 397.027,251.23 394.23,264.319C392.752,271.23 392.779,278.461 392.169,285.087C396.323,279.704 400.674,274.129 404.946,268.495C406.394,266.585 408.116,264.689 408.887,262.497C410.53,257.826 411.079,252.722 413.053,248.224C421.584,228.785 436.415,215.347 455.615,207.236C465.145,203.21 475.686,201.581 486.074,198.786C485.752,195.574 485.389,191.834 485,188.098C484.288,181.255 484.014,174.328 482.745,167.589C480.079,153.423 477.118,139.303 473.85,125.263C470.063,108.997 480.046,94.597 497.516,91.195C501.276,98.251 506.018,105.182 508.827,112.824C515.066,129.796 512.125,146.948 507.29,164.208L507.29,167.433C507.948,166.077 508.278,165.397 509.151,164.283M151.966,167.259C150.548,178.043 149.13,188.828 147.747,199.346C154.069,200.588 159.699,201.51 165.239,202.817C179.463,206.174 191.665,213.483 202.439,223.075C212.573,232.098 220.515,242.809 223.599,256.332C224.656,260.966 225.463,265.409 228.652,269.247C232.952,274.423 236.834,279.946 240.904,285.331C240.608,281.722 240.356,277.904 239.968,274.1C239.302,267.577 239.04,260.963 237.742,254.564C234.237,237.28 228.591,220.732 220.081,205.165C209.152,185.172 194.74,168.939 173.24,160.021C170.659,158.95 170.959,157.64 171.629,155.396C174.256,146.598 177.08,137.814 178.926,128.839C182.162,113.105 178.492,99.08 166.378,87.993C160.607,82.712 153.46,79.916 145.686,81.279C137.067,82.79 130.746,88.153 125.728,95.365C115.511,110.052 113.884,126.336 117.269,143.148C118.844,150.968 121.999,158.687 126.747,163.87C125.875,152.069 124.571,139.404 124.102,126.709C123.607,113.312 131.304,102.517 136.809,91.08C151.412,96.324 158.341,101.006 160.31,113.179C161.492,120.485 159.696,128.424 158.421,135.94C156.689,146.151 154.176,156.229 151.966,167.259M453.626,253.912C457.503,245.807 455.516,239.592 448.075,236.543C443.507,234.671 437.23,235.936 434.335,239.312C430.761,243.48 430.305,249.06 433.218,253.548C436.599,258.756 447.197,261.991 453.626,253.912M199.973,255.556C203.667,252.379 205.485,248.496 203.245,243.854C200.814,238.819 196.922,235.751 190.867,235.958C185.939,236.127 182.56,238.11 180.713,242.762C178.982,247.12 180.092,252.911 183.408,255.892C188.018,260.036 192.682,260.087 199.973,255.556Z" style="fill:rgb(1,1,1);fill-rule:nonzero;"/>
    </g>
    <g transform="matrix(1,0,0,1,-15.5,0)">
        <path d="M293.833,91.983C304.509,91.336 314.733,90.107 324.941,90.227C333.404,90.327 341.876,91.836 350.293,93.068C355.507,93.831 360.627,95.243 365.499,96.3C354.196,175.879 342.982,254.826 331.813,333.457L300.978,333.457C289.911,255.097 278.795,176.391 267.502,96.427C275.728,95.015 284.551,93.5 293.833,91.983Z" style="fill:rgb(1,1,1);fill-rule:nonzero;"/>
    </g>
    <g transform="matrix(1,0,0,1,-15.5,0)">
        <path d="M240.633,409.133C243.759,413.554 246.073,418.229 249.519,421.82C265.856,438.844 293.31,434.471 303.922,413.382C304.779,411.678 305.443,409.876 306.272,407.945C298.929,403.957 291.741,400.11 284.607,396.167C273.88,390.237 271.673,375.591 280.319,368.166C287.239,362.223 294.253,363.967 301.343,367.79C306.315,370.47 311.32,373.09 315.5,375.307C323.363,371.505 330.675,367.341 338.454,364.42C343.943,362.36 349.013,365.237 352.837,369.424C356.565,373.506 359.004,378.117 357.505,384.058C355.816,390.752 351.375,394.864 345.518,397.86C340.329,400.515 335.24,403.377 329.973,405.862C326.934,407.295 326.37,408.852 327.927,411.878C340.398,436.112 370.367,438.959 386.581,419.848C388.095,418.064 389.076,415.736 389.952,413.521C391.874,408.66 395.358,406.232 398.948,407.55C403.26,409.134 405.391,413.769 403.652,418.519C396.218,438.814 374.2,453.002 352.843,448.017C349.256,447.18 345.643,446.45 341.393,445.529C336.939,452.757 329.445,457.046 320.507,458.541C310.455,460.221 302,456.498 294.963,449.411C292.701,447.133 290.949,445.659 287.081,446.868C269.682,452.305 253.966,448.133 240.872,435.995C236.053,431.528 232.779,425.074 229.883,419.009C228.714,416.559 229.563,412.208 231.065,409.643C233.201,405.997 237.025,406.771 240.633,409.133Z" style="fill:rgb(2,2,2);fill-rule:nonzero;"/>
    </g>
</svg>
